<?xml version="1.0" standalone="no"?>
<!DOCTYPE svg PUBLIC "-//W3C//DTD SVG 20010904//EN"
 "http://www.w3.org/TR/2001/REC-SVG-20010904/DTD/svg10.dtd">
<svg version="1.0" xmlns="http://www.w3.org/2000/svg"
 width="591.000000pt" height="591.000000pt" viewBox="0 0 591.000000 591.000000"
 preserveAspectRatio="xMidYMid meet">
<metadata>
Created by potrace 1.14, written by Peter Selinger 2001-2017
</metadata>
<g transform="translate(0.000000,591.000000) scale(0.100000,-0.100000)"
fill="#000000" stroke="none">
<path d="M2857 5566 c-32 -12 -62 -28 -67 -36 -5 -8 -10 -11 -10 -7 0 4 -10
-2 -22 -15 -31 -31 -80 -98 -73 -98 3 0 0 -10 -7 -22 -17 -32 -21 -55 -20
-118 0 -49 6 -91 18 -128 2 -7 4 -14 4 -17 5 -37 100 -195 118 -195 6 0 12 -6
12 -14 0 -8 9 -18 20 -21 11 -3 20 -10 20 -14 0 -14 58 -33 107 -36 104 -6
206 80 280 238 12 26 20 47 17 47 -3 0 -1 8 5 18 8 15 20 78 24 122 5 58 -34
161 -79 209 -13 14 -24 29 -24 33 0 5 -7 8 -15 8 -8 0 -15 4 -15 9 0 17 -111
53 -173 56 -45 3 -78 -3 -120 -19z"/>
<path d="M2188 5440 c-38 -32 -53 -72 -50 -135 2 -39 20 -123 29 -138 4 -7 8
-14 9 -17 2 -13 51 -134 64 -161 22 -44 70 -173 70 -188 0 -9 5 -22 12 -29 9
-9 9 -12 0 -12 -7 0 -16 8 -19 17 -4 9 -14 24 -22 33 -27 29 -51 60 -51 66 0
4 -8 14 -19 23 -10 9 -21 26 -25 39 -4 12 -11 22 -16 22 -5 0 -18 16 -30 35
-12 20 -27 41 -33 48 -7 6 -24 28 -39 48 -68 91 -149 149 -208 149 -87 -1
-126 -69 -90 -155 7 -16 13 -33 12 -37 -1 -5 2 -8 7 -8 9 0 27 -40 22 -48 -1
-1 4 -9 11 -17 32 -35 38 -45 38 -60 0 -8 4 -15 10 -15 5 0 17 -15 25 -32 8
-18 28 -55 45 -83 17 -27 33 -58 36 -67 4 -10 10 -18 15 -18 5 0 8 -3 7 -7 -1
-5 9 -28 22 -53 13 -25 25 -49 26 -55 1 -5 15 -39 30 -75 24 -56 28 -80 30
-178 2 -118 -4 -147 -41 -192 -38 -46 -142 -105 -203 -116 -14 -3 -29 -7 -34
-10 -9 -6 -39 -10 -133 -19 -108 -10 -125 -10 -125 -1 0 5 -6 4 -12 -1 -7 -5
-24 -8 -38 -6 -14 2 -112 5 -218 7 -220 5 -260 -3 -279 -55 -12 -31 -11 -48 5
-89 9 -23 55 -70 67 -70 3 0 22 -7 43 -16 40 -18 51 -22 97 -28 17 -3 30 -5
30 -6 0 -2 33 -6 118 -14 38 -3 72 -8 76 -10 4 -3 25 -7 46 -10 22 -3 60 -8
85 -12 25 -3 51 -7 58 -7 6 0 12 -4 12 -8 0 -9 -41 -19 -100 -25 -25 -3 -61
-7 -80 -9 -19 -3 -53 -7 -75 -9 -22 -3 -58 -7 -80 -10 -22 -3 -56 -8 -75 -11
-19 -2 -48 -8 -65 -12 -16 -4 -32 -7 -35 -8 -3 0 -26 -11 -52 -23 -52 -26 -77
-57 -83 -105 -6 -50 4 -74 39 -91 39 -18 17 -17 311 -20 297 -4 412 -15 500
-48 123 -45 204 -112 224 -183 15 -54 5 -225 -15 -257 -5 -7 -10 -21 -11 -31
-2 -10 -12 -35 -23 -57 -11 -22 -20 -46 -20 -55 0 -8 -4 -15 -8 -15 -5 0 -19
-23 -32 -50 -13 -27 -27 -50 -32 -50 -4 0 -8 -6 -8 -12 0 -7 -22 -47 -50 -88
-27 -41 -50 -80 -50 -87 0 -6 -3 -13 -8 -15 -7 -3 -51 -73 -85 -134 -9 -17
-14 -34 -10 -38 3 -3 2 -6 -4 -6 -13 0 -12 -78 1 -98 10 -17 52 -34 91 -36 47
-4 105 30 173 103 89 93 92 96 92 109 0 5 3 12 8 14 8 4 82 94 82 101 0 3 11
18 25 33 13 16 37 45 54 64 30 35 51 37 32 3 -6 -10 -26 -56 -45 -103 -18 -47
-47 -114 -64 -150 -86 -188 -102 -294 -54 -361 15 -21 35 -39 44 -39 9 0 18
-4 20 -9 2 -5 22 0 45 11 33 15 53 36 87 91 25 40 49 77 53 82 4 6 19 33 33
60 14 28 30 53 35 57 7 5 7 8 0 8 -6 0 -6 3 0 8 6 4 22 28 35 55 14 26 28 47
32 47 5 0 8 9 8 20 0 11 7 23 15 26 8 4 15 11 15 16 0 40 217 268 260 274 3 0
23 8 45 18 56 25 122 24 168 -2 20 -12 39 -22 42 -22 25 1 170 -140 212 -206
66 -104 113 -184 113 -192 0 -6 3 -12 8 -14 4 -1 18 -25 32 -53 13 -27 28 -53
33 -56 5 -3 9 -13 11 -21 3 -20 72 -138 99 -170 54 -61 102 -68 149 -20 36 36
49 104 34 172 -3 14 -8 35 -10 47 -3 12 -9 30 -15 41 -6 11 -7 22 -4 26 3 3 1
6 -5 6 -7 0 -11 3 -10 8 2 10 -36 106 -103 262 -11 25 -22 59 -24 75 l-5 30
20 -25 c11 -14 32 -37 45 -53 14 -15 25 -31 25 -35 0 -4 9 -15 20 -25 11 -9
20 -24 20 -32 0 -8 4 -15 8 -15 4 0 34 -35 65 -78 60 -82 139 -172 152 -172 4
0 18 -9 32 -20 28 -22 85 -26 127 -10 15 5 34 26 43 45 14 30 15 39 4 56 -7
12 -10 23 -7 26 6 6 -43 104 -57 114 -5 3 -9 10 -9 15 -1 5 -6 18 -13 29 -7
11 -36 61 -65 110 -30 50 -58 93 -64 97 -6 4 -8 8 -4 8 4 0 -8 29 -27 64 -20
35 -50 101 -67 147 -27 72 -31 100 -34 193 -3 106 3 141 28 172 24 29 66 66
74 64 4 -1 10 3 13 8 26 40 196 85 328 86 51 1 93 5 93 9 0 5 4 5 10 2 16 -10
460 -13 466 -3 3 4 10 6 15 2 5 -3 22 8 38 25 30 32 33 59 12 113 -10 26 -60
68 -80 68 -6 0 -11 4 -11 9 0 5 -12 11 -27 14 -51 9 -87 18 -93 22 -4 3 -33 7
-65 11 -32 3 -66 7 -74 9 -9 2 -43 6 -76 9 -33 4 -69 9 -80 11 -11 2 -41 7
-67 10 -26 4 -49 14 -52 21 -3 8 -2 13 2 13 4 -1 9 -1 12 0 3 2 28 4 55 6 28
3 64 7 80 9 93 14 116 16 175 22 36 3 77 7 91 9 68 6 187 61 208 97 31 49 18
138 -19 138 -9 0 -20 3 -24 7 -14 14 -46 16 -261 19 -342 3 -434 11 -528 43
-105 37 -188 98 -213 157 -13 30 -27 103 -26 129 3 42 15 113 23 127 5 9 9 24
9 33 0 8 7 32 17 53 9 20 15 40 15 45 -1 4 3 7 9 7 5 0 8 4 4 9 -3 5 0 15 7
23 7 7 14 18 15 24 1 7 18 39 38 72 19 33 35 65 35 71 0 6 4 11 9 11 8 0 35
42 101 158 9 15 29 47 45 72 34 54 54 115 48 154 -10 68 -98 92 -176 49 -31
-17 -131 -113 -152 -146 -22 -34 -109 -142 -117 -145 -4 -2 -8 -10 -8 -18 0
-8 -3 -14 -7 -14 -5 0 -26 -25 -48 -55 -51 -69 -82 -82 -46 -20 3 6 7 18 8 27
3 16 32 87 73 173 87 184 111 275 96 363 -6 36 -47 77 -85 87 -23 6 -81 -11
-81 -24 0 -3 -10 -17 -23 -31 -25 -27 -105 -159 -105 -174 0 -5 -5 -12 -10
-15 -5 -3 -25 -36 -45 -73 -46 -86 -115 -196 -152 -246 -24 -33 -156 -162
-164 -162 -5 0 -16 -6 -23 -13 -20 -19 -109 -47 -150 -47 -34 0 -114 31 -162
62 -32 21 -146 136 -146 147 0 6 -4 11 -8 11 -5 0 -14 10 -21 23 -6 12 -19 34
-29 49 -35 54 -112 191 -112 199 0 5 -5 9 -12 9 -6 0 -9 3 -5 6 5 5 -29 82
-42 94 -4 3 -13 19 -21 35 -21 43 -78 127 -101 148 -34 32 -70 31 -111 -3z"/>
<path d="M1530 4791 c0 -4 -12 -7 -28 -8 -60 -6 -117 -33 -170 -82 -39 -36
-91 -136 -87 -168 1 -13 -1 -23 -5 -23 -7 0 -5 -45 5 -99 10 -52 53 -122 104
-168 25 -24 50 -43 54 -43 4 0 24 -7 45 -16 20 -9 46 -18 57 -20 40 -7 50 -10
60 -15 9 -6 177 -5 183 1 1 1 5 3 10 4 87 23 174 88 181 137 6 44 6 114 -1
147 -8 41 -67 162 -79 162 -5 0 -9 6 -9 13 0 37 -171 166 -221 167 -9 0 -19 3
-22 7 -8 8 -77 11 -77 4z"/>
<path d="M4295 4750 c-67 -17 -113 -46 -180 -114 -66 -67 -129 -169 -141 -230
-15 -71 4 -186 29 -186 5 0 5 -4 2 -10 -3 -5 -3 -10 2 -10 4 0 21 -11 36 -24
76 -65 263 -79 411 -30 54 18 126 61 126 75 0 5 6 9 13 9 6 0 21 19 31 43 11
23 25 48 30 56 15 20 18 39 18 122 0 144 -70 240 -217 294 -28 11 -124 13
-160 5z"/>
<path d="M1523 3174 c-32 -6 -80 -20 -106 -31 -55 -22 -147 -97 -147 -119 0
-7 -4 -14 -8 -14 -12 0 -33 -73 -37 -126 -2 -24 -7 -48 -10 -54 -3 -5 -2 -10
2 -10 5 0 9 -10 10 -22 3 -34 25 -98 35 -98 4 0 8 -6 8 -12 0 -34 118 -128
159 -128 11 0 22 -4 25 -8 9 -15 113 -14 163 1 79 24 140 67 204 147 100 122
138 260 98 349 -17 39 -86 104 -100 95 -5 -3 -9 -1 -9 3 0 29 -185 47 -287 27z"/>
<path d="M4195 3152 c-3 -3 -22 -6 -42 -8 -55 -4 -108 -29 -151 -72 -40 -40
-45 -55 -45 -142 0 -134 92 -286 228 -375 17 -11 33 -20 38 -21 4 -1 8 -3 10
-4 13 -13 179 -20 195 -8 6 6 12 8 12 4 0 -15 103 47 135 81 150 159 99 406
-103 500 -60 28 -64 29 -127 37 -22 2 -40 5 -40 6 0 4 -106 6 -110 2z"/>
<path d="M2853 2436 c-60 -28 -110 -79 -158 -162 -20 -34 -36 -64 -35 -66 1
-2 -5 -20 -13 -40 -9 -21 -13 -38 -10 -38 3 0 1 -6 -4 -12 -6 -7 -9 -26 -8
-41 1 -15 -2 -30 -6 -33 -5 -2 -6 -10 -4 -17 2 -7 6 -25 8 -42 19 -128 118
-241 232 -263 104 -21 205 3 279 65 27 23 80 89 85 105 5 19 13 45 22 66 6 15
5 22 -2 22 -8 0 -8 4 -1 13 10 12 9 74 -2 112 -3 11 -9 36 -14 56 -12 46 -60
144 -78 160 -8 6 -14 18 -14 27 0 8 -2 13 -5 10 -3 -3 -23 11 -43 31 -69 69
-147 84 -229 47z"/>
<path d="M1376 1175 c-55 -117 -70 -151 -72 -163 -1 -7 -9 -23 -16 -35 -8 -12
-27 -53 -43 -92 -16 -38 -33 -73 -38 -76 -5 -3 -9 -10 -9 -15 0 -11 -8 -31
-37 -98 -12 -27 -20 -54 -18 -60 3 -6 30 -11 63 -11 l59 0 33 67 33 67 127 -1
c133 -1 151 -6 152 -50 0 -10 5 -18 10 -18 6 0 10 -8 10 -19 0 -10 7 -24 15
-31 17 -14 124 -21 131 -8 3 4 -6 32 -20 62 -14 31 -28 67 -32 81 -3 14 -10
25 -15 25 -5 0 -8 3 -7 8 1 4 -10 33 -25 65 -15 32 -27 64 -27 72 0 8 -5 15
-11 15 -5 0 -8 4 -5 9 3 5 -1 14 -9 21 -8 7 -12 16 -9 21 3 5 0 9 -5 9 -6 0
-10 3 -9 8 2 9 -5 26 -47 119 l-33 71 -61 4 -62 3 -23 -50z m100 -157 c5 -13
8 -25 9 -28 0 -3 11 -24 24 -48 34 -66 28 -76 -47 -75 -35 0 -67 4 -71 9 -9 9
59 164 71 164 4 0 10 -10 14 -22z"/>
<path d="M2374 1215 c-12 -9 -70 -123 -135 -262 -26 -56 -44 -66 -54 -30 -4
12 -37 84 -74 160 l-66 137 -90 0 -91 0 1 -289 c0 -159 3 -293 7 -296 4 -4 33
-8 65 -8 l58 -1 0 182 c0 100 3 182 7 182 7 0 61 -97 63 -110 0 -8 49 -104 55
-110 3 -3 14 -23 25 -45 18 -36 24 -40 61 -43 l41 -3 54 108 c29 59 53 111 51
116 -1 4 2 7 7 7 5 0 16 19 25 41 9 23 20 38 24 34 4 -3 8 -77 8 -163 1 -87 2
-166 3 -177 1 -18 8 -20 58 -18 32 0 61 1 66 2 4 1 7 133 7 295 l0 294 -82 4
c-44 2 -87 -1 -94 -7z"/>
<path d="M3418 1222 c-55 -3 -58 -4 -59 -30 -4 -122 -1 -554 4 -558 7 -8 127
-12 128 -4 0 3 2 45 3 95 l1 89 48 1 c37 0 52 -5 67 -23 11 -12 20 -25 20 -28
0 -3 10 -19 23 -34 12 -15 31 -40 42 -55 34 -48 39 -50 111 -48 38 1 70 2 72
2 7 2 -25 52 -80 123 -60 80 -68 98 -43 98 20 0 75 56 80 81 2 11 7 30 11 42
7 21 7 75 0 107 -12 54 -30 79 -77 104 -27 15 -49 24 -49 20 0 -3 -6 -2 -12 3
-7 6 -60 11 -118 12 -58 2 -107 3 -110 4 -3 1 -31 1 -62 -1z m279 -135 c11
-11 18 -34 19 -63 1 -37 -3 -48 -27 -68 -25 -21 -37 -24 -111 -22 l-83 1 -2
75 c-1 41 0 80 2 86 2 7 36 10 94 10 72 -1 94 -5 108 -19z"/>
<path d="M4010 1215 c-9 -12 -9 -17 -9 -140 0 -55 -1 -109 -1 -120 0 -11 0
-56 1 -100 0 -44 0 -86 0 -92 -4 -73 -2 -115 7 -125 8 -10 59 -13 209 -11 109
1 205 2 214 2 12 1 16 13 18 56 l2 55 -161 0 -160 0 3 63 2 62 125 2 c69 0
131 2 138 2 9 1 12 17 11 54 l-2 54 -136 -1 -136 0 0 65 0 64 140 0 c135 0
172 6 160 26 -4 5 -2 9 2 9 13 0 3 71 -11 76 -25 9 -408 9 -416 -1z"/>
<path d="M4697 1224 c-3 -3 -11 -6 -19 -7 -21 -4 -88 -48 -88 -59 0 -5 -7 -16
-15 -24 -14 -14 -17 -30 -18 -94 -1 -27 31 -100 43 -100 4 0 17 -9 30 -20 13
-11 29 -21 37 -21 21 -2 27 -4 38 -10 9 -6 62 -20 75 -21 15 -1 86 -33 92 -41
11 -18 -2 -62 -24 -77 -45 -31 -131 -11 -220 52 -15 11 -23 7 -53 -25 -19 -20
-35 -43 -35 -51 0 -8 22 -28 48 -44 181 -111 417 -54 422 103 4 113 -37 155
-199 201 -49 14 -93 33 -103 44 -18 23 -13 58 11 77 21 16 103 17 119 1 7 -7
12 -9 12 -5 0 4 15 0 33 -10 47 -26 59 -23 89 22 32 47 28 54 -45 86 -38 16
-76 23 -138 25 -47 2 -89 1 -92 -2z"/>
<path d="M919 1193 c-3 -119 -1 -552 4 -559 4 -7 65 -10 122 -5 6 1 10 105 10
293 l-1 293 -67 3 -67 3 -1 -28z"/>
<path d="M2864 1163 c-14 -32 -38 -85 -53 -118 -15 -33 -56 -125 -92 -205 -35
-80 -66 -147 -69 -150 -3 -3 -6 -9 -7 -15 -1 -5 -5 -18 -8 -27 -4 -10 -3 -18
1 -19 68 -6 111 -2 124 13 30 33 36 44 46 78 l10 35 136 2 c133 2 137 1 144
-20 12 -42 48 -107 58 -108 115 -7 125 -3 105 47 -7 16 -13 31 -14 34 -4 12
-48 109 -72 157 -13 29 -25 54 -24 57 0 3 -15 36 -33 74 -19 37 -38 78 -41 92
-4 14 -19 48 -34 75 l-26 50 -62 3 -63 3 -26 -58z m123 -185 c15 -35 27 -65
26 -68 -1 -3 3 -10 9 -17 5 -7 7 -16 5 -20 -7 -12 -126 -8 -139 5 -7 7 1 33
26 86 19 42 37 76 40 76 3 0 18 -28 33 -62z"/>
</g>
</svg>
